<svg xmlns="http://www.w3.org/2000/svg" viewBox="0 0 120.53 120.46"><defs><style>.cls-1{fill:#171717d9;}.cls-2,.cls-3{fill:#c6ff00;stroke:#c6ff00;stroke-miterlimit:10;}.cls-2{stroke-width:2px;}.cls-3{stroke-width:3px;}</style></defs><g id="Слой_2" data-name="Слой 2"><g id="Слой_1-2" data-name="Слой 1"><path class="cls-1" d="M109,35.59a56,56,0,0,1,3.12,7.88,64,64,0,0,1,2.53,16.73A56.26,56.26,0,1,1,58.37,3.94,63.7,63.7,0,0,1,75.1,6.47a55.42,55.42,0,0,1,9.25,3.82"/><path class="cls-2" d="M67.76,119A59.26,59.26,0,0,1,50,1.84,66.73,66.73,0,0,1,67.79,1.4a59.53,59.53,0,0,1,7.48,1.46,2.81,2.81,0,0,1,2,3.56l-.11.35A2.82,2.82,0,0,1,73.7,8.65,52.34,52.34,0,0,0,67,7.36a60.93,60.93,0,0,0-16,.39A53.26,53.26,0,1,0,112.71,51a61.84,61.84,0,0,0-5.1-15.18,52.68,52.68,0,0,0-2.67-4.59,2.85,2.85,0,0,1,.7-3.87l.27-.19a2.82,2.82,0,0,1,4,.73,58,58,0,0,1,3,5.17,66.55,66.55,0,0,1,5.68,16.89A59.32,59.32,0,0,1,67.76,119Z"/><circle class="cls-2" cx="92.46" cy="15.27" r="3.54"/><path class="cls-3" d="M50.26,60.42c0-7.54,5.33-13.67,11.88-13.67S74,52.88,74,60.42V74a2.27,2.27,0,1,0,4.53,0V60.42c0-10.41-7.36-18.88-16.41-18.88S45.73,50,45.73,60.42V73.74A2.36,2.36,0,0,0,48,76.17a2.24,2.24,0,0,0,1.83-1,2.49,2.49,0,0,0,.46-1.46Z"/></g></g></svg>