<svg id="Layer_1" version="1.1" viewBox="0 0 50 50" xml:space="preserve" xmlns="http://www.w3.org/2000/svg" enable-background="new 0 0 50 50"><path d="M37.391 36.813v.565c-.001.39-.255.775-.765 1.071-1.023.595-2.69.595-3.721 0l-4.257-2.457c-.52-.3-.778-.692-.777-1.086v-.567c0 .393.259.786.777 1.085l4.258 2.458c1.03.595 2.697.595 3.721 0 .509-.295.764-.682.764-1.07z" fill="#1b2a4f" class="fill-1b2a4f"></path><path d="M36.615 35.727c1.03.595 1.036 1.56.012 2.156-1.024.595-2.69.595-3.721 0l-4.258-2.458c-1.03-.596-1.035-1.56-.011-2.156 1.024-.595 2.69-.595 3.72 0l4.258 2.458z" fill="#384e85" class="fill-384e85"></path><path d="m34.947 32.528.85-.494-.01 4.281-.85.494z" fill="#1b2a4f" class="fill-1b2a4f"></path><path d="m34.947 32.528-.01 4.281-4.323-2.496.01-4.28z" fill="#2e4277" class="fill-2e4277"></path><path d="m42.952 37.189-.003 1.575c-.002.496-.35.694-.781.445l-17.142-9.897c-.431-.249-.777-.848-.776-1.343l.003-1.576L42.952 37.19z" fill="#6bb5fb" class="fill-6bb5fb"></path><path d="M42.209 24.888c.431.249.777.852.776 1.343l-.033 10.958-18.699-10.796.033-10.957c.001-.492.35-.694.78-.445l17.143 9.897z" fill="#1b2a4f" class="fill-1b2a4f"></path><path d="m42.449 25.642-.027 11.24-17.634-10.18.033-11.235z" fill="#ffffff" class="fill-ffffff"></path><g enable-background="new"><path d="M40.964 45.167a.966.966 0 0 1-.435.756l-.53.303L22.211 35.89l.53-.303c.242-.14.438-.478.435-.756 0-.135-.048-.232-.126-.277L40.838 44.89c.078.045.126.142.126.277z" fill="#6bb5fb" class="fill-6bb5fb"></path><path d="M40 46.475 22.213 36.138l-.001-.248 17.787 10.337zM35.065 48.072 17.278 37.736l-.001-.247 17.787 10.337z" fill="#4466fb" class="fill-4466fb"></path><path d="M40.99 44.628c-.12-.07-.284-.061-.465.045l-5.461 3.152-17.788-10.338 5.461-3.15c.181-.107.346-.117.465-.046L40.99 44.628z" fill="#6bb5fb" class="fill-6bb5fb"></path><path d="M40.525 44.672c.36-.208.653-.04.654.372.001.412-.29.917-.65 1.125l-.53.306v-.248l.53-.306a.96.96 0 0 0 .435-.753c0-.277-.197-.389-.438-.25l-5.461 3.154v-.246l5.46-3.154z" fill="#3955d1" class="fill-3955d1"></path></g><path d="m23.567 35.331-.457.267-.778-.45.458-.265zM24.615 35.936l-.458.266-.778-.449.458-.266zM25.662 36.54l-.458.267-.777-.449.458-.266zM26.71 37.145l-.459.267-.781-.452.458-.266zM23.294 35.943l-.79.46-1.168-.675.79-.46zM24.34 36.548l-.788.459-.782-.452.79-.458zM25.388 37.153l-.79.459-.781-.452.79-.459zM26.435 37.757l-.789.46-.782-.452.79-.459zM27.757 37.75l-.458.266-.782-.451.458-.266zM27.483 38.362l-.79.459-.781-.452.789-.458zM22.954 36.901l-.787.458-1.825-1.054.787-.457zM24.001 37.506l-.787.458-.782-.452.787-.457zM25.048 38.11l-.787.458-.782-.451.788-.458zM26.096 38.715l-.788.458-.781-.452.787-.457zM22.225 37.632l-.79.46-2.09-1.208.79-.459zM23.273 38.237l-.79.459-.777-.45.789-.458zM24.269 38.812l-.79.459-.781-.451.79-.46zM25.261 39.385l-.79.459-.779-.45.79-.46zM28.804 38.355l-.458.266-.782-.451.458-.267zM28.53 38.967l-.79.459-.781-.452.79-.459zM27.143 39.32l-.787.458-.782-.452.787-.457zM26.255 39.959l-.79.459-.78-.452.788-.458zM29.851 38.96l-.458.266-.781-.452.458-.266zM30.899 39.564l-.458.266-.782-.451.458-.266zM31.946 40.169l-.458.266-.782-.451.458-.267zM32.993 40.773l-.458.267-.781-.452.457-.266zM34.04 41.378l-.457.266-.782-.451.458-.266zM29.577 39.571l-.789.46-.782-.452.79-.459zM30.625 40.176l-.79.459-.781-.452.789-.458zM33.376 41.764l-.79.46-2.485-1.436.79-.459zM28.19 39.925l-.787.457-.782-.451.788-.458zM29.238 40.53l-.788.457-.781-.452.787-.457zM30.285 41.134l-.787.458-.782-.452.787-.457zM32.38 42.343l-.788.458-1.829-1.056.787-.458zM30.338 42.316l-.79.46-.78-.452.788-.459zM36.341 42.706l-.458.267-.782-.452.458-.266zM35.676 43.093l-.789.458-.782-.45.79-.46zM34.68 43.672l-.787.457-.782-.451.787-.458zM33.686 44.25l-.79.458-.78-.451.788-.459zM37.389 43.311l-.458.266-.782-.451.458-.266zM36.724 43.697l-.79.46-.781-.452.789-.459zM35.728 44.276l-.788.458-.781-.452.787-.457zM34.733 44.854l-.789.459-.782-.452.79-.458zM33.737 45.433l-.789.459-1.83-1.056.79-.46zM38.432 43.913l-.458.266-.778-.449.458-.266zM39.479 44.518l-.458.266-.778-.449.458-.266zM27.25 40.533l-.79.459-.782-.452.79-.458zM28.244 41.107l-.79.459-.782-.452.79-.458zM19.916 37.453l-.79.459-.78-.451.788-.459zM20.964 38.058l-.79.459-.782-.452.79-.458zM22.01 38.663l-.789.458-.781-.451.79-.459zM26.245 41.107l-.79.459-3.968-2.291.79-.46zM27.247 41.686l-.789.459-.782-.452.79-.458zM28.295 42.29l-.79.46-.781-.452.789-.459zM29.342 42.895l-.79.459-.781-.451.79-.46zM30.39 43.5l-.79.459-.782-.452.79-.458zM37.767 44.3l-.79.458-.777-.449.79-.458zM36.77 44.879l-.787.457-.777-.449.787-.457zM35.777 45.456l-.79.459-.777-.449.789-.459zM34.78 46.035l-.789.459-.777-.45.789-.458zM38.814 44.904l-.79.459-.777-.449.79-.459zM37.818 45.483l-.787.458-.778-.45.787-.457zM36.824 46.06l-1.786 1.038-.777-.448 1.785-1.038z" fill="#2e4277" class="fill-2e4277"></path><path d="M43.725 25.8c0-.49-.34-1.094-.77-1.344L25.81 14.56c-.219-.129-.415-.136-.558-.06l-.74.437c.143-.083.332-.075.558.053l17.136 9.897c.43.249.778.853.778 1.344l-.033 10.958.74-.427.033-10.962z" fill="#384e85" class="fill-384e85"></path><path d="m42.952 37.189-.005 1.573c0 .249-.083.422-.226.506l.747-.438c.136-.076.219-.25.219-.499l.005-1.57-.74.428z" fill="#3955d1" class="fill-3955d1"></path><path d="M32.78 31.974c.283.163.514.558.513.883-.001.325-.234.457-.516.294-.283-.163-.51-.56-.509-.886.001-.324.23-.454.512-.291z" fill="#4466fb" class="fill-4466fb"></path><g enable-background="new"><path d="m20.089 30.603-.003 1.176-4.042 2.35.002-1.176z" fill="#aabafd" class="fill-aabafd"></path><path d="m16.046 32.953-.002 1.175-4.073-2.351.003-1.176z" fill="#b7c5fd" class="fill-b7c5fd"></path><path d="m20.089 30.603-4.043 2.35-4.072-2.352 4.042-2.349z" fill="#d9ddf6" class="fill-d9ddf6"></path></g><path d="m15.758 19.697.06.074.358-.197-1.45-1.775.964-.122.037-.02.06.073.357-.197-1.455-1.783 1.008-.128.037-.02.06.074.357-.197-1.456-1.783 1.007-.128.037-.02.061.074.357-.197-1.456-1.783 1.008-.128.037-.02.06.074.357-.197-1.456-1.784 1.008-.127.037-.02.06.073.357-.197-1.455-1.783 1.007-.127.037-.021.06.074.358-.197L14.62 5.36l-.357.196 1.394 1.707-1.106.14-.356.197.253-.032-.156.086 1.359 1.663-1.106.14-.357.197.254-.032-.156.086 1.358 1.664-1.105.14-.357.196.254-.032-.156.086 1.358 1.664-1.105.14-.357.197.254-.033-.156.086 1.358 1.664-1.105.14-.357.197.254-.032-.156.085 1.358 1.664-1.07.136-.356.196.086-.01-.023.012 1.394 1.707-1.106.14-.356.197.253-.032-.156.086 1.359 1.663-1.106.14-.357.197.254-.032-.156.086 1.358 1.664-1.105.14-.357.196.254-.032-.156.086 1.358 1.664-1.105.14-.357.197.254-.033-.156.086 1.358 1.664-1.105.14-.357.197.254-.032-.156.085 1.358 1.664-1.07.136-.356.196 1.49-.188.036-.02.06.073.357-.197-1.455-1.783 1.008-.128.037-.02.06.074.357-.197-1.456-1.783 1.007-.128.037-.02.061.074.357-.197-1.456-1.783 1.008-.128.037-.02.06.074.357-.197-1.456-1.784 1.008-.127.037-.02.06.073.357-.197-1.455-1.783 1.007-.127z" fill="#384e85" class="fill-384e85"></path><path d="m17.89 28.128-.254-.032.157.085-1.36 1.664 1.07.136.358.196-1.49-.189-.037-.02-.06.074-.358-.197 1.456-1.783-1.007-.128-.037-.02-.06.074-.358-.197 1.457-1.783-1.008-.128-.037-.02-.06.074-.357-.197 1.455-1.783-1.008-.128-.037-.02-.06.074-.357-.197 1.456-1.784-1.007-.127-.037-.02-.061.073-.357-.196 1.456-1.784-1.008-.128-.037-.02-.06.074-.357-.197 1.45-1.775-.965-.122-.037-.02-.06.073-.358-.197 1.456-1.783-1.007-.128-.037-.02-.06.074-.358-.197 1.457-1.783-1.008-.128-.037-.02-.06.074-.357-.197 1.455-1.784-1.008-.127-.037-.02-.06.073-.357-.196 1.456-1.784-1.007-.127-.037-.02-.061.073-.357-.197 1.456-1.783-1.008-.127-.037-.02-.06.073-.357-.197 1.554-1.903.357.196-1.393 1.707 1.105.14.356.197-.253-.033.156.086-1.359 1.664 1.106.14.358.197-.255-.032.156.086-1.358 1.664 1.105.14.357.196-.254-.032.156.086-1.358 1.664 1.105.14.357.197-.253-.032.155.085-1.358 1.664 1.106.14.357.197-.255-.032.157.085-1.36 1.664 1.07.136.358.196-.086-.01.022.012-1.393 1.707 1.105.14.356.197-.253-.032.156.086-1.359 1.664 1.106.139.358.197-.255-.032.156.086-1.358 1.664 1.105.14.357.197-.254-.032.156.085-1.358 1.664 1.105.14.357.196-.253-.032.155.086-1.358 1.664 1.106.14z" fill="#384e85" class="fill-384e85"></path><g enable-background="new"><path d="m15.819 19.77-1.525.195 1.518 1.86-1.525.194 1.519 1.86-1.525.194 1.519 1.86-1.525.195 1.52 1.86-1.526.193 1.519 1.861-1.561.198-.027-.062 1.49-.19-1.52-1.86 1.526-.194-1.52-1.86 1.527-.194-1.52-1.86 1.526-.194-1.52-1.86 1.525-.194-1.518-1.86 1.525-.195-1.464-1.793-.03.004-.027-.063 1.49-.188-1.52-1.86 1.526-.195-1.52-1.86 1.527-.194-1.52-1.86 1.526-.194-1.52-1.86 1.525-.195-1.518-1.86 1.525-.193-1.483-1.818.026-.033 1.555 1.904-1.525.194 1.518 1.86-1.525.194 1.519 1.86-1.525.194 1.519 1.86-1.525.194 1.52 1.86-1.526.195 1.519 1.86-1.483.188z" fill="#1b2a4f" class="fill-1b2a4f"></path></g><g enable-background="new"><path d="m17.89 28.128-1.519 1.86 1.49.19-.027.062-1.56-.198 1.519-1.86-1.526-.194 1.52-1.86-1.525-.195 1.518-1.86-1.525-.194 1.519-1.86-1.525-.194 1.518-1.86-1.524-.194 1.514-1.853-1.484-.188 1.52-1.86-1.526-.195 1.52-1.86-1.525-.193 1.518-1.86-1.525-.195 1.519-1.86-1.525-.194 1.518-1.86-1.524-.194 1.554-1.904.028.033-1.485 1.818 1.526.193-1.52 1.86 1.526.194-1.519 1.86 1.525.194-1.52 1.861 1.526.194-1.52 1.86 1.527.194-1.52 1.86 1.49.19-.027.062-.03-.004-1.464 1.793 1.526.194-1.52 1.86 1.526.194-1.519 1.861 1.525.194-1.52 1.86 1.526.193-1.52 1.861z" fill="#1b2a4f" class="fill-1b2a4f"></path></g><g enable-background="new"><path d="m15.742 17.535.289-.136.29.136-.29.136z" fill="#384e85" class="fill-384e85"></path></g><g enable-background="new"><path d="m17.456 16.728.29-.136.29.136-.29.136z" fill="#384e85" class="fill-384e85"></path><path d="M17.746 18.134v12.682l-.292-.135V18z" fill="#2e4277" class="fill-2e4277"></path></g><g enable-background="new"><path d="m14.605 16.728-.29-.136-.289.136.289.136z" fill="#384e85" class="fill-384e85"></path></g><g enable-background="new"><path d="M16.322 5.223v26.472l-.292.14V5.359z" fill="#1b2a4f" class="fill-1b2a4f"></path><path d="m15.742 5.223.289-.136.29.136-.29.136z" fill="#384e85" class="fill-384e85"></path><path d="M16.03 5.358v26.478l-.292-.141.007-26.472z" fill="#2e4277" class="fill-2e4277"></path></g><g enable-background="new"><path d="M18.038 4.418V30.68l-.292.135V4.553z" fill="#1b2a4f" class="fill-1b2a4f"></path><path d="m17.456 4.416.29-.136.29.136-.29.136z" fill="#384e85" class="fill-384e85"></path><path d="M17.746 4.553v13.581l-.292-.135V4.418z" fill="#2e4277" class="fill-2e4277"></path></g><g enable-background="new"><path d="M14.314 4.553v26.263l-.285-.135V4.418z" fill="#1b2a4f" class="fill-1b2a4f"></path><path d="m14.605 4.416-.29-.136-.289.136.289.136z" fill="#384e85" class="fill-384e85"></path><path d="M14.606 4.418V30.68l-.292.135V4.553z" fill="#2e4277" class="fill-2e4277"></path></g><g enable-background="new"><path d="m18.505 2.397-.001 2.208-2.466 1.433.002-2.209z" fill="#aabafd" class="fill-aabafd"></path><path d="m16.04 3.83-.002 2.208-2.484-1.434.002-2.209z" fill="#b7c5fd" class="fill-b7c5fd"></path><path d="M18.505 2.397 16.04 3.829l-2.484-1.434L16.021.963z" fill="#d9ddf6" class="fill-d9ddf6"></path></g><g enable-background="new"><path d="m32.78 15.56.354.205c.221-.07.419-.053.573.037l-.353-.206c-.155-.09-.353-.106-.574-.037zM32.6 16.652l-.008-3.298.535-.308-.354-.206-.535.309.009 3.297z" fill="#384e85" class="fill-384e85"></path></g><path d="M33.519 16.867c0-.204-.073-.347-.189-.415l-.354-.205c.116.067.189.21.19.414 0 .269-.131.57-.317.81.103.088.197.191.273.313.233-.248.398-.609.397-.917z" fill="#d9ddf6" class="fill-d9ddf6"></path><path d="M34.052 16.558c-.001-.642-.394-.957-.918-.793l-.007-2.72-.535.31.008 3.297.268-.155c.357-.206.65-.041.65.37.002.308-.163.67-.396.917.092.15.15.312.18.473.44-.452.752-1.123.75-1.699z" fill="#1b2a4f" class="fill-1b2a4f"></path><g enable-background="new"><path d="m33.613 18.565-.467.273c-.113.067-.273.054-.447-.046-.346-.2-.627-.687-.62-1.088 0-.193.067-.326.18-.393l.467-.274c-.113.067-.18.2-.18.394 0 .4.28.887.627 1.087.173.1.327.114.44.047z" fill="#d9ddf6" class="fill-d9ddf6"></path><path d="m37.355 19.739-.013 5.91c-.007.3-.107.513-.28.607l-.467.273c.167-.093.273-.307.273-.607l.02-5.91c0-.6-.42-1.334-.947-1.64l-6.47-3.736c-.26-.147-.5-.16-.674-.06l.474-.273c.173-.1.407-.087.667.06l6.47 3.735c.527.307.947 1.04.947 1.641z" fill="#d9ddf6" class="fill-d9ddf6"></path><path d="M35.939 18.374c.528.305.948 1.037.946 1.64l-.016 5.906c-.002.607-.425.848-.953.543l-6.469-3.735c-.52-.3-.944-1.03-.942-1.637l.016-5.907c.002-.602.43-.845.949-.545l6.469 3.735zm-3.239.419c.35.202.627.034.628-.363.001-.396-.275-.874-.624-1.076-.345-.199-.627-.043-.628.353-.001.397.28.887.624 1.086" fill="#b7c5fd" class="fill-b7c5fd"></path><path d="m31.197 19.876-.002.602-.95.059.946 1.168-.001.606-1.433-1.766.001-.56zM33.444 21.173l1.433 1.766-.002.561-1.438.109.002-.607.95-.073-.947-1.154zM33.194 20.366l-1.25 3.043-.504-.29 1.25-3.044z" fill="#384e85" class="fill-384e85"></path></g><path d="M32.849 17.47a1.21 1.21 0 0 1-.33.311.596.596 0 0 1-.268.085l.013-.013-.354-.206-.5.506a.64.64 0 0 0 .268.322l.353.205a.64.64 0 0 1-.267-.321l.442-.448.204.119c.12.07.287.058.462-.043.089-.051.173-.121.25-.203a1.337 1.337 0 0 0-.273-.313z" fill="#384e85" class="fill-384e85"></path><path d="M32.872 17.987c-.267.154-.513.1-.608-.134l-.5.506c.175.426.62.524 1.11.24.151-.087.294-.205.427-.342a1.343 1.343 0 0 0-.18-.473 1.117 1.117 0 0 1-.249.203z" fill="#1b2a4f" class="fill-1b2a4f"></path><g enable-background="new"><path d="m33.81 13.875 1.137-.66-.004 1.13-1.136.661z" fill="#1b2a4f" class="fill-1b2a4f"></path><path d="m16.722 4.01 1.136-.661 17.089 9.866-1.136.66z" fill="#384e85" class="fill-384e85"></path><path d="m33.81 13.875-.003 1.131L16.72 5.14l.003-1.13z" fill="#2e4277" class="fill-2e4277"></path></g><path d="M38.675 30.62a.653.653 0 0 1 .297.513l-.007 2.345c0 .188-.134.264-.298.17l-2.04-1.179a.644.644 0 0 1-.292-.51l.006-2.345c0-.188.13-.267.294-.172l2.04 1.178z" fill="#4466fb" class="fill-4466fb"></path><path d="M34.315 28.102a.653.653 0 0 1 .296.514l-.006 2.344c-.001.189-.134.265-.299.17l-2.04-1.178a.652.652 0 0 1-.292-.51l.007-2.345c0-.189.134-.265.294-.173l2.04 1.178z" fill="#384e85" class="fill-384e85"></path><path d="M29.955 25.585a.653.653 0 0 1 .296.513l-.007 2.345c0 .188-.134.264-.298.17l-2.04-1.178a.644.644 0 0 1-.292-.51l.007-2.346c0-.188.13-.267.293-.172l2.04 1.178z" fill="#9aadfd" class="fill-9aadfd"></path><g enable-background="new"><path d="M15.824 41.362v1.324c0 .122-.082.236-.236.333l-3.95 2.292c-.316.179-.828.179-1.153 0l-3.966-2.292c-.163-.097-.244-.219-.244-.34l.008-1.325c0 .121.082.243.236.34l3.974 2.284c.317.187.837.187 1.145.009l3.95-2.3c.162-.09.236-.203.236-.325z" fill="#b7c5fd" class="fill-b7c5fd"></path><path d="M15.582 41.023c.322.186.323.485.009.668l-3.949 2.294c-.314.183-.831.183-1.153-.003L6.52 41.691c-.316-.183-.318-.482-.004-.665l3.949-2.295c.314-.182.831-.182 1.148 0l3.969 2.292z" fill="#d9ddf6" class="fill-d9ddf6"></path></g><g enable-background="new"><path d="M12.522 40.385c.632.365 1.025.869 1.028 1.424 0 .066-.095.12-.208.12a.31.31 0 0 1-.152-.035c-.038-.022-.061-.053-.06-.087-.004-.487-.35-.929-.905-1.25-.554-.32-1.318-.518-2.16-.519a.297.297 0 0 1-.149-.035c-.039-.022-.062-.053-.063-.087 0-.066.095-.12.209-.121.958 0 1.828.226 2.46.59z" fill="#384e85" class="fill-384e85"></path><path d="M11.83 40.788c.477.276.774.657.776 1.078 0 .068-.092.122-.21.122a.302.302 0 0 1-.148-.036c-.038-.022-.062-.052-.062-.085-.002-.353-.252-.674-.654-.906-.402-.232-.956-.376-1.565-.375a.309.309 0 0 1-.152-.036c-.039-.022-.06-.052-.06-.086 0-.07.092-.123.21-.122.727 0 1.386.17 1.864.446z" fill="#384e85" class="fill-384e85"></path><path d="M11.135 41.191c.34.197.526.46.528.735 0 .066-.095.12-.21.123a.311.311 0 0 1-.15-.037c-.037-.022-.061-.052-.063-.086-.001-.212-.162-.41-.413-.555a1.962 1.962 0 0 0-.96-.238.326.326 0 0 1-.147-.036c-.038-.023-.063-.054-.066-.086.003-.068.098-.123.211-.123.479.002.93.107 1.27.303z" fill="#384e85" class="fill-384e85"></path></g><g enable-background="new"><path d="M10.337 41.655c.245.142.249.371.003.514a.98.98 0 0 1-.888 0c-.247-.143-.246-.372-.002-.514a.97.97 0 0 1 .887 0z" fill="#384e85" class="fill-384e85"></path></g><g enable-background="new"><path d="M27.404 44.954v1.325c0 .121-.081.235-.236.333l-3.95 2.291c-.316.18-.828.18-1.153 0l-3.966-2.291c-.162-.098-.243-.22-.243-.342l.008-1.324c0 .122.08.244.235.341l3.974 2.284c.317.187.837.187 1.146.008l3.95-2.3c.162-.09.235-.203.235-.325z" fill="#1b2a4f" class="fill-1b2a4f"></path><path d="M27.162 44.615c.322.186.324.485.01.668l-3.95 2.295c-.314.182-.83.182-1.152-.003l-3.97-2.292c-.316-.183-.318-.482-.003-.665l3.948-2.294c.315-.183.832-.183 1.148 0l3.97 2.291z" fill="#384e85" class="fill-384e85"></path></g></svg>