<?xml version="1.0" ?><!DOCTYPE svg  PUBLIC '-//W3C//DTD SVG 1.1//EN'  'http://www.w3.org/Graphics/SVG/1.1/DTD/svg11.dtd'><svg enable-background="new 0 0 24 24" height="24px" id="Layer_1" version="1.1" viewBox="0 0 24 24" width="24px" xml:space="preserve" xmlns="http://www.w3.org/2000/svg" xmlns:xlink="http://www.w3.org/1999/xlink"><g><path d="M0.5,17.983c-0.086,0-0.173-0.022-0.25-0.067C0.095,17.827,0,17.662,0,17.483V6.513C0,6.334,0.095,6.169,0.25,6.08   c0.154-0.091,0.346-0.091,0.5,0l9.5,5.482c0.155,0.089,0.25,0.254,0.25,0.435c0,0.179-0.095,0.344-0.25,0.433l-9.5,5.484   C0.673,17.961,0.586,17.983,0.5,17.983z M1,7.381v9.236l8-4.618L1,7.381z"/><path d="M13.5,22.499c-3.679,0-7.026-1.879-8.955-5.025c-0.145-0.234-0.07-0.543,0.165-0.688s0.543-0.069,0.688,0.166   C7.143,19.8,10.172,21.5,13.5,21.5c5.238,0,9.5-4.262,9.5-9.5c0-5.237-4.262-9.5-9.5-9.5c-3.328,0-6.357,1.7-8.102,4.55   C5.254,7.283,4.946,7.359,4.71,7.216C4.475,7.069,4.4,6.764,4.545,6.527C6.473,3.38,9.82,1.501,13.5,1.501   c5.79,0,10.5,4.711,10.5,10.5S19.29,22.499,13.5,22.499z"/><path d="M13.5,19.499c-2.586,0-4.958-1.318-6.344-3.527C7.009,15.74,7.08,15.43,7.314,15.284c0.233-0.148,0.542-0.076,0.689,0.156   c1.203,1.916,3.257,3.061,5.498,3.061c3.584,0,6.5-2.916,6.5-6.5s-2.916-6.5-6.5-6.5c-2.24,0-4.295,1.145-5.498,3.061   C7.857,8.794,7.549,8.867,7.314,8.718C7.08,8.572,7.009,8.262,7.156,8.03c1.386-2.209,3.758-3.527,6.344-3.527   c4.136,0,7.5,3.364,7.5,7.5S17.636,19.499,13.5,19.499z"/></g></svg>